<svg xmlns="http://www.w3.org/2000/svg" width="201" height="100" viewBox="0 0 201 100" fill="none">
  <path d="M49.6016 0.338219C42.5937 1.58868 35.0557 7.02819 30.7568 13.9682C27.1645 19.7204 25.5744 29.474 27.4589 34.2257C30.639 42.3537 40.8859 41.791 44.9493 33.2254C46.0682 30.9745 47.246 24.0345 46.5393 24.0345C46.3626 24.0345 45.4204 24.4721 44.5371 24.9723C43.5948 25.4725 41.2981 25.9102 39.4136 25.9102C36.5869 25.9102 35.7624 25.6601 34.5846 24.3471C30.6979 20.2831 35.3502 15.2812 42.947 15.2812C46.0093 15.2812 58.4351 16.5317 58.9063 16.9068C59.024 16.9694 58.4351 18.4074 57.6696 20.0955C55.3728 24.8473 51.2505 35.8513 46.9516 48.4185C40.5325 67.488 37.3525 72.99 31.0512 76.2412C20.6276 81.6807 11.3819 72.6149 16.0931 61.5483C18.2131 56.4839 22.0999 53.1702 27.6945 51.5446C30.8745 50.6693 30.639 49.6689 26.87 48.2309C23.2188 46.8554 19.391 47.2305 15.1509 49.2938C-0.219475 56.734 -4.8718 81.9308 6.78846 94.3104C10.9108 98.6245 14.1497 100 20.7454 100C25.8689 100 26.6933 99.8124 30.1679 97.9993C40.7092 92.4347 45.2437 84.2442 52.1928 58.3596C60.0252 29.2239 68.0931 12.03 77.7511 3.90203C80.6367 1.46363 81.4023 -0.224488 79.3411 0.213173C77.7511 0.525789 58.1996 0.463265 55.1962 0.088127C53.9006 -0.0994422 51.3683 0.025604 49.6016 0.338219Z" fill="#FF7F51"/>
  <path d="M71.5087 14.8436C71.2143 15.2812 70.5076 17.8447 69.9187 20.5957C67.5042 32.7252 59.3774 55.421 52.1928 70.3015C50.1316 74.6156 48.4238 78.3045 48.4238 78.5546C48.4238 79.3674 65.3842 79.1173 65.8553 78.3045C66.0909 77.9294 66.2086 73.9279 66.1497 69.4262C66.032 62.8613 66.2675 60.4854 67.1509 57.4218C69.4476 49.6689 74.3355 44.4795 79.5178 44.417C81.6967 44.3545 82.2856 44.6046 82.4623 45.4799C82.9334 47.9183 81.7556 49.919 76.22 56.1088C72.0976 60.673 70.2721 63.2364 69.742 65.0496C67.5042 73.1151 71.2143 78.7422 78.7522 78.7422C83.4635 78.7422 87.1735 76.7414 91.8259 71.8021L95.5359 67.9257L96.1837 70.4891C97.0671 73.9279 100.424 77.4917 103.781 78.4295C112.084 80.8054 121.742 74.303 127.278 62.6737C130.517 55.8587 131.812 49.2313 130.87 44.3545C129.633 38.0396 126.1 35.4762 119.622 36.1014C112.261 36.7892 104.605 42.5413 100.07 50.7318C96.9493 56.4214 91.9436 59.1724 88.7636 56.9216C86.1135 55.1084 86.8202 53.2327 91.9436 47.9183C96.6549 43.0415 97.5382 41.2283 96.5371 38.6649C95.7126 36.6016 93.357 35.6012 89.4114 35.6012C85.0535 35.6638 80.5778 37.1643 76.8089 39.9153C71.1554 44.0418 70.5076 43.4166 73.6877 36.9142C76.2789 31.5372 79.9889 25.9102 85.0535 19.4703C87.5269 16.3441 88.2924 14.9061 87.7624 14.5935C86.5257 13.7807 72.1565 14.0308 71.5087 14.8436ZM120.564 49.2938C123.862 50.3567 126.159 52.4825 126.159 54.3582C126.159 57.0466 121.919 59.5476 116.56 60.1103C107.02 61.0481 99.5994 56.0463 104.016 51.6071C106.961 48.6686 114.97 47.5431 120.564 49.2938Z" fill="#FF7F51"/>
  <path d="M140.116 36.289C139.88 36.5391 139.704 38.2272 139.704 39.9779C139.704 44.6046 138.467 48.4185 135.051 54.3582C130.752 61.7359 129.516 65.0496 129.457 69.1136C129.398 71.9897 129.692 72.99 130.988 74.8657C134.168 79.2424 140.822 80.0552 148.478 77.054L151.599 75.8036L154.073 77.2416C156.016 78.4296 157.371 78.6796 160.904 78.6796C164.614 78.7422 165.91 78.4296 169.266 76.7414C173.742 74.4906 177.864 70.7392 179.926 66.9878C180.75 65.5498 182.222 61.4233 183.282 57.7969C185.873 48.8561 186.227 48.2309 191.998 42.2912C195.708 38.4773 196.827 36.9142 196.356 36.4141C195.885 35.9139 195.237 35.9139 193.883 36.5391C192.646 37.1018 190.938 37.1643 188.406 36.8517C186.403 36.6016 183.812 36.3515 182.693 36.289L180.632 36.2265L180.279 40.9157C179.808 48.1684 176.804 54.2956 172.682 56.5465C169.679 58.1721 168.206 58.1096 166.499 56.2339C163.554 53.1702 165.085 49.1688 171.74 42.2287C176.274 37.5395 177.452 35.2886 174.92 36.289C173.153 36.9142 166.616 36.9142 163.201 36.289L160.492 35.7888L160.08 40.228C159.196 50.8569 153.366 58.9224 147.713 57.4218C145.828 56.9216 145.004 55.4836 145.004 52.6701C145.004 49.6689 146.829 46.8554 151.953 41.7285C155.545 38.1647 156.369 37.1018 155.781 36.4766C155.192 35.8513 154.779 35.8513 153.602 36.5391C152.188 37.2894 148.714 37.2269 142.648 36.164C141.529 35.9764 140.41 36.0389 140.116 36.289Z" fill="#FF7F51"/>
  <path d="M47.246 90.3715V94.2479L51.5449 93.8102C56.1973 93.31 57.0806 92.8099 56.3739 91.1217C56.0795 90.4965 55.9617 89.4961 56.0206 88.8084C56.2562 87.1203 55.0783 86.5576 50.956 86.5576H47.246V90.3715ZM53.135 89.0585C53.135 89.3711 52.4872 89.6837 51.6627 89.6837C50.8383 89.6837 50.1905 89.3711 50.1905 89.0585C50.1905 88.6833 50.8383 88.4332 51.6627 88.4332C52.4872 88.4332 53.135 88.6833 53.135 89.0585ZM53.4294 91.5594C53.2528 91.872 52.4283 92.1846 51.6627 92.1846C50.8971 92.1846 50.0727 91.872 49.896 91.5594C49.6605 91.1843 50.3671 90.9342 51.6627 90.9342C52.9583 90.9342 53.665 91.1843 53.4294 91.5594Z" fill="#FF7F51"/>
  <path d="M59.5541 89.6837C58.553 91.3719 57.7285 92.9349 57.6696 93.185C57.4929 93.8728 59.5541 93.9978 59.9663 93.3726C60.3197 92.7474 64.5009 92.6223 65.1487 93.2475C65.5609 93.7477 67.8576 93.9978 67.8576 93.5602C67.8576 93.4351 66.9743 91.8095 65.9731 89.9338C63.4409 85.4322 62.0275 85.3696 59.5541 89.6837ZM63.0875 90.8717C62.2042 91.1843 61.7919 90.4965 62.2631 89.6837C62.6164 89.121 62.852 89.121 63.2053 89.7463C63.4997 90.2464 63.4409 90.6841 63.0875 90.8717Z" fill="#FF7F51"/>
  <path d="M69.1531 90.1214C69.2709 92.9974 69.5064 93.6852 70.4487 93.8102C71.0965 93.9353 71.6265 93.4976 71.8031 92.7473C72.2154 91.2468 73.5698 91.1843 75.0421 92.6223C76.8088 94.3104 77.8688 94.1854 77.8099 92.3097C77.751 91.3718 77.8688 90.1839 78.1044 89.6212C78.8111 87.8705 76.3377 86.5575 72.392 86.5575H68.9764L69.1531 90.1214ZM75.2188 89.0585C75.4543 89.4336 74.8065 89.6837 73.8054 89.6837C72.8043 89.6837 71.9798 89.3711 71.9798 89.0585C71.9798 88.6833 72.6276 88.4332 73.3932 88.4332C74.2176 88.4332 75.0421 88.6833 75.2188 89.0585Z" fill="#FF7F51"/>
  <path d="M81.9323 86.8702C81.9323 87.0577 81.8734 88.6833 81.8734 90.434L81.8145 93.7477H85.5246C87.998 93.7477 89.3525 93.4976 89.5292 92.9349C89.6469 92.4347 88.9991 92.1846 87.3502 92.1846C86.0546 92.1846 84.8179 91.872 84.6413 91.5594C84.4057 91.1843 85.1124 90.9342 86.3491 90.9342C87.5269 90.9342 88.4691 90.6216 88.4691 90.3089C88.4691 89.9338 87.5269 89.6837 86.408 89.6837C83.4635 89.6837 83.8168 88.5583 86.8791 88.3082C88.2336 88.1832 89.3525 87.808 89.3525 87.4954C89.3525 86.8702 82.0501 86.1824 81.9323 86.8702Z" fill="#FF7F51"/>
  <path d="M93.2981 90.1214C93.4159 92.9974 93.6515 93.6852 94.5937 93.8102C95.2415 93.9353 95.7715 93.4976 95.9482 92.7473C96.3604 91.2468 97.7149 91.1843 99.1871 92.6223C100.954 94.3104 102.014 94.1854 101.896 92.2471C101.837 91.3718 101.955 90.2464 102.191 89.8713C102.485 89.4336 102.132 88.5583 101.425 87.808C100.483 86.8076 99.4816 86.5575 96.7138 86.5575H93.1215L93.2981 90.1214ZM99.3638 89.0585C99.5994 89.4336 98.9516 89.6837 97.9505 89.6837C96.9493 89.6837 96.1249 89.3711 96.1249 89.0585C96.1249 88.6833 96.7727 88.4332 97.5382 88.4332C98.3627 88.4332 99.1871 88.6833 99.3638 89.0585Z" fill="#FF7F51"/>
  <path d="M103.427 87.4329C103.251 87.8705 103.192 89.4961 103.309 90.9967L103.486 93.7477H107.255C109.787 93.7477 111.142 93.4976 111.319 92.9349C111.436 92.4347 110.73 92.1846 108.845 92.1846C107.373 92.1846 106.136 91.872 106.136 91.5594C106.136 91.1843 107.078 90.9342 108.197 90.9342C109.316 90.9342 110.259 90.6216 110.259 90.3089C110.259 89.9338 109.316 89.6837 108.197 89.6837C107.078 89.6837 106.136 89.3711 106.136 89.0585C106.136 88.6833 107.196 88.4332 108.492 88.4332C110.2 88.4332 110.847 88.1832 110.847 87.4954C110.847 86.1824 103.898 86.1199 103.427 87.4329Z" fill="#FF7F51"/>
  <path d="M112.909 87.808C111.495 89.4961 112.614 90.9342 115.382 90.9342C116.501 90.9342 117.266 91.1843 117.031 91.4969C116.854 91.8095 115.794 91.9345 114.675 91.747C112.379 91.3718 111.849 92.3097 113.733 93.4351C115.382 94.3729 117.443 94.1854 118.974 93.06C120.859 91.6845 120.388 90.2464 117.62 89.3086L115.264 88.5583L117.796 88.8709C120.447 89.2461 121.153 88.3707 119.151 87.1828C117.266 86.1199 114.086 86.4325 112.909 87.808Z" fill="#FF7F51"/>
  <path d="M120.859 87.4954C120.859 88.0581 121.389 88.4333 122.331 88.4333C123.685 88.4333 123.803 88.6834 123.803 91.1218C123.803 93.3726 123.98 93.8103 124.981 93.8103C125.982 93.8103 126.159 93.3726 126.159 91.1218C126.159 88.6834 126.277 88.4333 127.631 88.4333C128.573 88.4333 129.103 88.0581 129.103 87.4954C129.103 86.7452 128.279 86.5576 124.981 86.5576C121.683 86.5576 120.859 86.7452 120.859 87.4954Z" fill="#FF7F51"/>
  <path d="M131.753 89.8088C130.634 91.622 129.692 93.2476 129.692 93.4976C129.692 93.9978 131.93 93.8103 132.401 93.2476C132.637 92.9975 133.814 92.8099 134.992 92.8099C136.17 92.8099 137.348 92.9975 137.583 93.2476C138.055 93.8103 140.292 93.9978 140.292 93.4976C140.292 93.2476 139.35 91.622 138.231 89.8088C136.877 87.7455 135.699 86.5576 134.992 86.5576C134.286 86.5576 133.108 87.7455 131.753 89.8088ZM135.817 89.9964C136.052 90.6216 135.758 90.9342 134.992 90.9342C134.227 90.9342 133.932 90.6216 134.168 89.9964C134.403 89.4962 134.757 89.0585 134.992 89.0585C135.228 89.0585 135.581 89.4962 135.817 89.9964Z" fill="#FF7F51"/>
  <path d="M140.881 88.9334C140.881 92.4972 142 93.7477 145.298 93.7477C148.596 93.7477 149.715 92.4972 149.715 88.9334C149.715 86.8076 149.538 86.5576 148.302 86.5576C147.006 86.5576 146.829 86.8702 146.653 89.1835C146.535 91.3718 146.24 91.872 145.298 91.872C144.356 91.872 144.061 91.3718 143.944 89.1835C143.767 86.8702 143.59 86.5576 142.295 86.5576C141.058 86.5576 140.881 86.8076 140.881 88.9334Z" fill="#FF7F51"/>
  <path d="M150.893 90.3089C150.893 93.8102 150.952 94.0603 152.247 93.8102C152.954 93.7477 153.543 93.2475 153.543 92.7473C153.543 91.4344 155.722 91.3093 156.605 92.5598C157.017 93.185 157.842 93.7477 158.431 93.8728C159.314 93.9978 159.491 93.5601 159.55 90.8717C159.608 87.1203 158.902 86.5576 154.191 86.5576H150.893V90.3089ZM156.782 89.0585C156.782 89.3711 155.957 89.6837 154.956 89.6837C153.955 89.6837 153.307 89.4336 153.543 89.0585C153.719 88.6833 154.544 88.4333 155.368 88.4333C156.134 88.4333 156.782 88.6833 156.782 89.0585Z" fill="#FF7F51"/>
  <path d="M162.73 89.6837C161.728 91.4344 160.904 93.06 160.904 93.3726C160.904 93.9978 162.435 93.9353 163.024 93.2475C163.26 92.9974 164.555 92.8099 165.91 92.8099C167.264 92.8099 168.56 92.9974 168.795 93.2475C169.384 93.8728 170.915 93.9978 170.915 93.4351C170.915 93.1225 170.091 91.4969 169.09 89.7462C166.557 85.4947 165.144 85.4947 162.73 89.6837ZM166.793 90.3715C166.793 90.6841 166.381 90.9342 165.91 90.9342C165.026 90.9342 164.732 90.1839 165.38 89.4961C165.851 88.996 166.793 89.5587 166.793 90.3715Z" fill="#FF7F51"/>
  <path d="M172.211 90.1213C172.388 93.2475 172.564 93.7477 173.565 93.7477C174.449 93.7477 174.802 93.2475 175.038 91.6844L175.332 89.6211L177.275 91.7469C178.453 92.9974 179.749 93.8727 180.514 93.8102C181.692 93.7477 181.81 93.3725 181.987 90.1213C182.163 86.6825 182.104 86.5575 180.632 86.5575C179.337 86.5575 179.16 86.8076 179.16 88.8709V91.2467L177.334 88.8709C175.98 87.1202 175.097 86.5575 173.801 86.5575H172.034L172.211 90.1213Z" fill="#FF7F51"/>
  <path d="M183.282 87.4954C183.282 87.9956 183.812 88.4332 184.401 88.4332C185.343 88.4332 185.579 88.9334 185.756 91.0592C185.873 93.2475 186.168 93.7477 187.11 93.7477C188.052 93.7477 188.347 93.2475 188.465 91.1217C188.582 89.0585 188.877 88.4958 189.819 88.3082C190.467 88.1832 191.056 87.808 191.115 87.4954C191.174 87.1203 189.525 86.8076 187.287 86.6826C183.989 86.5576 183.282 86.6826 183.282 87.4954Z" fill="#FF7F51"/>
  <path d="M192.234 90.1214L192.41 93.7477H196.179C198.712 93.7477 200.066 93.4976 200.243 92.9349C200.36 92.4347 199.654 92.1846 197.769 92.1846C196.297 92.1846 195.06 91.872 195.06 91.5594C195.06 91.1843 196.003 90.9342 197.121 90.9342C198.24 90.9342 199.183 90.6216 199.183 90.3089C199.183 89.9338 198.24 89.6837 197.121 89.6837C196.003 89.6837 195.06 89.3711 195.06 89.0585C195.06 88.6833 196.12 88.4332 197.416 88.4332C199.124 88.4332 199.772 88.1832 199.772 87.4954C199.772 86.7451 198.947 86.5576 195.944 86.5576H192.057L192.234 90.1214Z" fill="#FF7F51"/>
</svg>